<svg width="32" height="32" viewBox="0 0 32 32" fill="none" xmlns="http://www.w3.org/2000/svg">
<path d="M7.70019 4.69994C6.55318 5.58012 5.5423 6.6247 4.70019 7.79994L6.30019 8.99994C7.03463 7.98137 7.91004 7.07229 8.90019 6.29994L7.70019 4.69994ZM4.60019 12.2999L2.70019 11.6999C2.21715 13.0813 1.98022 14.5367 2.00019 15.9999H4.00019C3.99613 14.7421 4.19883 13.4921 4.60019 12.2999ZM2.70019 20.3999C3.16395 21.7944 3.83843 23.1096 4.70019 24.2999L6.30019 23.0999C5.57727 22.0877 5.00466 20.9762 4.60019 19.7999L2.70019 20.3999ZM7.80019 27.2999C8.99052 28.1617 10.3058 28.8362 11.7002 29.2999L12.3002 27.3999C11.1239 26.9955 10.0124 26.4229 9.00019 25.6999L7.80019 27.2999ZM11.7002 2.69994L12.3002 4.59994C13.4923 4.19859 14.7423 3.99589 16.0002 3.99994V1.99994C14.5369 1.97998 13.0815 2.21691 11.7002 2.69994ZM24.2002 27.2999C25.3781 26.4221 26.4223 25.3778 27.3002 24.1999L25.7002 22.9999C24.9565 24.0437 24.044 24.9563 23.0002 25.6999L24.2002 27.2999ZM27.4002 19.6999L29.3002 20.2999C29.7352 18.9068 29.9709 17.4591 30.0002 15.9999H28.0002C28.0042 17.2578 27.8015 18.5078 27.4002 19.6999ZM29.2002 11.5999C28.7364 10.2055 28.0619 8.89028 27.2002 7.69994L25.6002 8.89994C26.3231 9.91216 26.8957 11.0237 27.3002 12.1999L29.2002 11.5999ZM24.1002 4.59994C22.9099 3.73818 21.5946 3.06371 20.2002 2.59994L19.6002 4.49994C20.7764 4.90442 21.888 5.47702 22.9002 6.19994L24.1002 4.59994ZM20.3002 29.2999L19.7002 27.3999C18.5081 27.8013 17.2581 28.004 16.0002 27.9999V29.9999C17.4536 29.9134 18.8944 29.6788 20.3002 29.2999Z" fill="black"/>
</svg>
